<svg viewBox="0 0 500 500" xmlns="http://www.w3.org/2000/svg">
  <defs>
    <style>
      .planet-label { font-family: Arial, sans-serif; font-size: 8px; fill: #a0aec0; }
    </style>
  </defs>
  <rect width="500" height="500" fill="#0d1117"/>
  
  <!-- 太阳 -->
  <circle cx="250" cy="250" r="25" fill="#FDB813">
    <animate attributeName="r" values="23;27;23" dur="3s" repeatCount="indefinite"/>
  </circle>
  <text x="250" y="285" text-anchor="middle" class="planet-label" fill="#FDB813">太阳</text>
  
  <!-- 水星轨道和行星 -->
  <circle cx="250" cy="250" r="45" fill="none" stroke="#2d3748" stroke-width="0.5"/>
  <path id="orbit1" d="M 205 250 A 45 45 0 1 1 205 250.001" fill="none"/>
  <g>
    <animateMotion dur="2s" repeatCount="indefinite"><mpath href="#orbit1"/></animateMotion>
    <circle r="4" fill="#B7B7B7"/>
    <text x="0" y="-8" text-anchor="middle" class="planet-label">水星</text>
  </g>
  
  <!-- 金星轨道和行星 -->
  <circle cx="250" cy="250" r="65" fill="none" stroke="#2d3748" stroke-width="0.5"/>
  <path id="orbit2" d="M 185 250 A 65 65 0 1 1 185 250.001" fill="none"/>
  <g>
    <animateMotion dur="3.5s" repeatCount="indefinite"><mpath href="#orbit2"/></animateMotion>
    <circle r="6" fill="#E8CDA0"/>
    <text x="0" y="-10" text-anchor="middle" class="planet-label">金星</text>
  </g>
  
  <!-- 地球轨道和行星 -->
  <circle cx="250" cy="250" r="90" fill="none" stroke="#2d3748" stroke-width="0.5"/>
  <path id="orbit3" d="M 160 250 A 90 90 0 1 1 160 250.001" fill="none"/>
  <g>
    <animateMotion dur="5s" repeatCount="indefinite"><mpath href="#orbit3"/></animateMotion>
    <circle r="6" fill="#4299E1"/>
    <text x="0" y="-10" text-anchor="middle" class="planet-label">地球</text>
  </g>
  
  <!-- 火星轨道和行星 -->
  <circle cx="250" cy="250" r="115" fill="none" stroke="#2d3748" stroke-width="0.5"/>
  <path id="orbit4" d="M 135 250 A 115 115 0 1 1 135 250.001" fill="none"/>
  <g>
    <animateMotion dur="7s" repeatCount="indefinite"><mpath href="#orbit4"/></animateMotion>
    <circle r="5" fill="#E53E3E"/>
    <text x="0" y="-9" text-anchor="middle" class="planet-label">火星</text>
  </g>
  
  <!-- 木星轨道和行星 -->
  <circle cx="250" cy="250" r="150" fill="none" stroke="#2d3748" stroke-width="0.5"/>
  <path id="orbit5" d="M 100 250 A 150 150 0 1 1 100 250.001" fill="none"/>
  <g>
    <animateMotion dur="12s" repeatCount="indefinite"><mpath href="#orbit5"/></animateMotion>
    <circle r="12" fill="#D69E2E"/>
    <text x="0" y="-16" text-anchor="middle" class="planet-label">木星</text>
  </g>
  
  <!-- 土星轨道和行星（带环） -->
  <circle cx="250" cy="250" r="185" fill="none" stroke="#2d3748" stroke-width="0.5"/>
  <path id="orbit6" d="M 65 250 A 185 185 0 1 1 65 250.001" fill="none"/>
  <g>
    <animateMotion dur="18s" repeatCount="indefinite"><mpath href="#orbit6"/></animateMotion>
    <ellipse rx="16" ry="4" fill="none" stroke="#C9A227" stroke-width="2"/>
    <circle r="9" fill="#F6E05E"/>
    <text x="0" y="-18" text-anchor="middle" class="planet-label">土星</text>
  </g>
  
  <!-- 天王星轨道和行星 -->
  <circle cx="250" cy="250" r="210" fill="none" stroke="#2d3748" stroke-width="0.5"/>
  <path id="orbit7" d="M 40 250 A 210 210 0 1 1 40 250.001" fill="none"/>
  <g>
    <animateMotion dur="25s" repeatCount="indefinite"><mpath href="#orbit7"/></animateMotion>
    <circle r="7" fill="#76E4F7"/>
    <text x="0" y="-11" text-anchor="middle" class="planet-label">天王星</text>
  </g>
  
  <!-- 海王星轨道和行星 -->
  <circle cx="250" cy="250" r="235" fill="none" stroke="#2d3748" stroke-width="0.5"/>
  <path id="orbit8" d="M 15 250 A 235 235 0 1 1 15 250.001" fill="none"/>
  <g>
    <animateMotion dur="35s" repeatCount="indefinite"><mpath href="#orbit8"/></animateMotion>
    <circle r="7" fill="#3182CE"/>
    <text x="0" y="-11" text-anchor="middle" class="planet-label">海王星</text>
  </g>
</svg>
